<?xml version="1.0" encoding="UTF-8"?>
<svg width="365px" height="100px" viewBox="0 0 365 100" version="1.1" xmlns="http://www.w3.org/2000/svg" xmlns:xlink="http://www.w3.org/1999/xlink">
    <!-- Generator: Sketch 43.2 (39069) - http://www.bohemiancoding.com/sketch -->
    <title>Artboard</title>
    <desc>Created with Sketch.</desc>
    <defs></defs>
    <g id="Page-1" stroke="none" stroke-width="1" fill="none" fill-rule="evenodd">
        <g id="Artboard" fill="#D8FFF7">
            <g id="Y" transform="translate(308.000000, 26.000000)">
                <path d="M36.9089236,6.66513339 L55,0 L38,0 L8,5.68434189e-14 L8,69 L36.9089236,6.66513339 Z M8,0 L55,0 L55,69 L8,69 L8,0 Z M23,69 L55,69 L55,1.95943488e-15 L23,69 Z" id="Combined-Shape"></path>
                <path d="M0,7 L0,69 L25,69 L25,69 L-5.68434189e-14,69 L-6.32280058e-14,7 L-1.11022302e-15,7 Z M20,0 L30,0 L20,5.68434189e-14 L20,4.4408921e-16 Z M18.2463768,7 L34.0144928,41 L25,41 L25,53.90625 L3.24637681,7 L18.2463768,7 Z" id="Combined-Shape"></path>
            </g>
            <g id="R" transform="translate(258.000000, 26.000000)">
                <rect id="Rectangle-11" x="0" y="26" width="15" height="26"></rect>
                <path d="M0,26 C0,11.6405965 11.6405965,0 26,0 L26,15.0106742 C20.0464736,15.2653604 15.2653604,20.0464736 15.0106742,26 L1.55431223e-15,26 Z" id="Combined-Shape"></path>
                <polygon id="Triangle" transform="translate(29.500000, 7.500000) scale(1, -1) rotate(90.000000) translate(-29.500000, -7.500000) " points="37 4 37 11 22 11"></polygon>
            </g>
            <g id="T" transform="translate(202.000000, 3.000000)">
                <path d="M0.0188770477,47.9999929 C0.00633006126,48.3317747 0,48.6651481 0,49 C0,63.3594035 11.6405965,75 26,75 L26,60.9893258 C19.8806919,60.7275476 15,55.6837471 15,49.5 C15,48.9916207 15.0329878,48.4909461 15.0969397,48 L0.0188767792,48 Z" id="Combined-Shape"></path>
                <path d="M0,11 C0,25.3594035 11.6405965,37 26,37 L26,22.9893258 C19.8806919,22.7275476 15,17.6837471 15,11.5 C15,11.3324725 15.0035822,11.1657817 15.0106742,11 L8.8817842e-16,11 Z" id="Combined-Shape"></path>
                <polygon id="Triangle" transform="translate(29.500000, 30.000000) scale(1, -1) rotate(90.000000) translate(-29.500000, -30.000000) " points="36.5 26.5 36.5 33.5 22.5 33.5"></polygon>
                <polygon id="Triangle-Copy" transform="translate(29.500000, 68.000000) rotate(90.000000) translate(-29.500000, -68.000000) " points="36.5 64.5 36.5 71.5 22.5 71.5"></polygon>
                <path d="M15,-9.49240686e-15 L15,51.8091846 L0,51.8091846 L0,6.99461487 L15,-1.05471187e-14 Z" id="Combined-Shape-Copy-3"></path>
            </g>
            <g id="S" transform="translate(133.000000, 24.000000)">
                <rect id="Rectangle-5" x="16" y="20" width="4" height="14"></rect>
                <path d="M17,0 C7.61115925,0 0,7.61115925 0,17 C0,26.3888407 7.61115925,34 17,34 L17,20 C15.3431458,20 14,18.6568542 14,17 C14,15.3431458 15.3431458,14 17,14 L17,2.49800181e-15 Z" id="Combined-Shape"></path>
                <path d="M37,20 C27.6111593,20 20,27.6111593 20,37 C20,46.3888407 27.6111593,54 37,54 L37,40 C35.3431458,40 34,38.6568542 34,37 C34,35.3431458 35.3431458,34 37,34 L37,20 Z" id="Combined-Shape-Copy-2" transform="translate(28.500000, 37.000000) scale(-1, 1) translate(-28.500000, -37.000000) "></path>
                <rect id="Rectangle-3" x="0" y="40" width="20" height="14"></rect>
                <rect id="Rectangle-3-Copy-2" x="18" y="0" width="20" height="14"></rect>
                <path d="M17,0 C25.3651889,0 32.3192007,6.04196726 33.7361337,14 L17,14 L17,3.10862447e-15 Z" id="Combined-Shape"></path>
            </g>
            <g id="I" transform="translate(89.000000, 26.000000)">
                <path d="M15,-9.49240686e-15 L15,51.8091846 L0,51.8091846 L0,6.99461487 L15,-1.05471187e-14 Z" id="Combined-Shape-Copy"></path>
            </g>
            <g id="B" transform="translate(8.000000, 3.000000)">
                <path d="M26,75 C11.6405965,75 0,63.3594035 0,49 C0,34.6405965 11.6405965,23 26,23 C40.3594035,23 52,34.6405965 52,49 C52,63.3594035 40.3594035,75 26,75 Z M26.5,61 C32.8512746,61 38,55.8512746 38,49.5 C38,43.1487254 32.8512746,38 26.5,38 C20.1487254,38 15,43.1487254 15,49.5 C15,55.8512746 20.1487254,61 26.5,61 Z" id="Combined-Shape"></path>
                <path d="M15,-9.49240686e-15 L15,51.8091846 L0,51.8091846 L0,6.99461487 L15,-1.05471187e-14 Z" id="Combined-Shape"></path>
            </g>
        </g>
    </g>
</svg>